<svg width="26" height="26" viewBox="0 0 26 26" fill="none" xmlns="http://www.w3.org/2000/svg">
<path d="M18.9997 14.68V18.28C18.9997 23.08 17.0797 25 12.2798 25H7.71988C2.91997 25 1 23.08 1 18.28V13.72C1 8.92 2.91997 7 7.71988 7H11.3198M18.9997 14.68H15.1593C12.2793 14.68 11.3193 13.72 11.3193 10.84L11.3198 7M18.9997 14.68L11.3198 7M12.5193 1H17.3192M6.99989 4.6C6.99989 2.608 8.60786 1 10.5998 1H13.7438M25 8.2V15.628C25 17.488 23.488 19 21.6281 19M25 8.2H21.3996C18.6997 8.2 17.7997 7.3 17.7997 4.6V1L25 8.2Z" stroke="white" stroke-width="1.5" stroke-linecap="round" stroke-linejoin="round"/>
</svg>
