<svg width="26" height="26" viewBox="0 0 26 26" fill="none" xmlns="http://www.w3.org/2000/svg">
<path d="M14.2414 6.7931H20.8621M14.2414 10.931H20.8621M5.96552 15.069H20.8621M5.96552 19.2069H20.8621M5.13793 25H20.8621C23.1474 25 25 23.1474 25 20.8621V5.13793C25 2.85262 23.1474 1 20.8621 1H5.13793C2.85262 1 1 2.85261 1 5.13793V20.8621C1 23.1474 2.85261 25 5.13793 25ZM6.7931 10.931H10.1034C10.5605 10.931 10.931 10.5605 10.931 10.1034V6.7931C10.931 6.33604 10.5605 5.96552 10.1034 5.96552H6.7931C6.33604 5.96552 5.96552 6.33604 5.96552 6.7931V10.1034C5.96552 10.5605 6.33604 10.931 6.7931 10.931Z" stroke="white" stroke-width="1.5" stroke-linecap="round" stroke-linejoin="round"/>
</svg>
