<svg width="25" height="26" viewBox="0 0 25 26" fill="none" xmlns="http://www.w3.org/2000/svg">
<path d="M8.33222 14.812L16.68 19.588M16.6678 6.412L8.33222 11.188M23.5 21.4C23.5 23.3882 21.8584 25 19.8333 25C17.8083 25 16.1667 23.3882 16.1667 21.4C16.1667 19.4118 17.8083 17.8 19.8333 17.8C21.8584 17.8 23.5 19.4118 23.5 21.4ZM8.83333 13C8.83333 14.9882 7.19171 16.6 5.16667 16.6C3.14162 16.6 1.5 14.9882 1.5 13C1.5 11.0118 3.14162 9.4 5.16667 9.4C7.19171 9.4 8.83333 11.0118 8.83333 13ZM23.5 4.6C23.5 6.58823 21.8584 8.2 19.8333 8.2C17.8083 8.2 16.1667 6.58823 16.1667 4.6C16.1667 2.61177 17.8083 1 19.8333 1C21.8584 1 23.5 2.61177 23.5 4.6Z" stroke="white" stroke-width="1.5" stroke-linecap="round" stroke-linejoin="round"/>
</svg>
