<svg width="24" height="24" viewBox="0 0 24 24" fill="none" xmlns="http://www.w3.org/2000/svg">
<path d="M21.0356 7.6514C21.6415 8.62528 22.8002 10.7999 22.8002 10.7999C22.8002 10.7999 21.7157 13.2557 21.0356 14.3487C18.3655 18.64 12.586 19.9619 8.00013 18.3145M18.5317 5C13.8048 1.63335 6.15928 2.51705 2.96468 7.65127C2.35869 8.62519 1.2002 10.7999 1.2002 10.7999C1.2002 10.7999 2.2846 13.2556 2.96468 14.3486C3.52111 15.2429 4.21258 16.0082 5.00013 16.6446M16.0001 11.0006C16.0001 13.2097 14.2086 15 11.9995 15M15.0001 8.35438C14.267 7.52373 13.1943 7 11.9995 7C9.79042 7 8.00013 8.79029 8.00013 11.0006C8.00013 12.0152 8.37775 12.9414 9.00013 13.6464M22.0001 2L2.00013 20" stroke="#91909E" stroke-width="1.2" stroke-linecap="round"/>
</svg>
