<svg width="24" height="24" viewBox="0 0 24 24" fill="none" xmlns="http://www.w3.org/2000/svg">
<path d="M5.40039 2.09961H18.6004C19.7004 2.09961 20.6004 2.99961 20.6004 4.09961V6.29961C20.6004 7.09961 20.1004 8.09961 19.6004 8.59961L15.3004 12.3996C14.7004 12.8996 14.3004 13.8996 14.3004 14.6996V18.9996C14.3004 19.5996 13.9004 20.3996 13.4004 20.6996L12.0004 21.5996C10.7004 22.3996 8.90039 21.4996 8.90039 19.8996V14.5996C8.90039 13.8996 8.50039 12.9996 8.10039 12.4996L4.30039 8.49961C3.80039 7.99961 3.40039 7.09961 3.40039 6.49961V4.19961C3.40039 2.99961 4.30039 2.09961 5.40039 2.09961Z" stroke="#48B2FF" stroke-width="1.2" stroke-miterlimit="10" stroke-linecap="round" stroke-linejoin="round"/>
<path d="M3.5 6L20 8L15.5 12C15 12.5 14 13.8 14 15V20L11 22L9 21V15C8.83333 14.1667 8.4 12.4 8 12L4 8L3.5 6Z" fill="#48B2FF" fill-opacity="0.3"/>
</svg>
