<svg width="20" height="20" viewBox="0 0 20 20" fill="none" xmlns="http://www.w3.org/2000/svg">
<path d="M5.76965 6.19216C5.76965 6.52353 6.03828 6.79216 6.36965 6.79216C6.70102 6.79216 6.96965 6.52353 6.96965 6.19216H5.76965ZM9.04276 2.61772L8.89716 2.03565V2.03565L9.04276 2.61772ZM10.9565 2.61772L10.8109 3.19978L10.9565 2.61772ZM10.5997 11.25C10.5997 10.9186 10.331 10.65 9.99967 10.65C9.6683 10.65 9.39967 10.9186 9.39967 11.25H10.5997ZM9.39967 12.9167C9.39967 13.248 9.6683 13.5167 9.99967 13.5167C10.331 13.5167 10.5997 13.248 10.5997 12.9167H9.39967ZM12.6081 4.4859C12.7844 4.76647 13.1548 4.851 13.4353 4.67469C13.7159 4.49839 13.8005 4.12801 13.6241 3.84744L12.6081 4.4859ZM6.96965 6.19216V5.93976H5.76965V6.19216H6.96965ZM9.18836 3.19978C9.72023 3.06674 10.2791 3.06674 10.8109 3.19978L11.1021 2.03565C10.3791 1.85478 9.62022 1.85478 8.89716 2.03565L9.18836 3.19978ZM6.96965 5.93976C6.96965 4.66715 7.86644 3.53046 9.18836 3.19978L8.89716 2.03565C7.0704 2.49261 5.76965 4.08694 5.76965 5.93976H6.96965ZM9.39967 11.25V12.9167H10.5997V11.25H9.39967ZM13.6241 3.84744C13.0717 2.96827 12.1795 2.30514 11.1021 2.03565L10.8109 3.19978C11.5882 3.39422 12.2206 3.86923 12.6081 4.4859L13.6241 3.84744ZM7.14412 18.1H12.8552V16.9H7.14412V18.1ZM12.8552 18.1C14.2749 18.1 15.4247 17.8213 16.2048 17.0451C16.9857 16.2682 17.2663 15.1223 17.2663 13.7083H16.0663C16.0663 15.0027 15.8026 15.7526 15.3584 16.1944C14.9136 16.6371 14.1578 16.9 12.8552 16.9V18.1ZM17.2663 13.7083V10.4583H16.0663V13.7083H17.2663ZM17.2663 10.4583C17.2663 9.04434 16.9857 7.89842 16.2048 7.12153C15.4247 6.34538 14.2749 6.06667 12.8552 6.06667V7.26667C14.1578 7.26667 14.9136 7.52962 15.3584 7.97222C15.8026 8.41408 16.0663 9.164 16.0663 10.4583H17.2663ZM12.8552 6.06667H7.14412V7.26667H12.8552V6.06667ZM7.14412 6.06667C5.72448 6.06667 4.57468 6.34538 3.79455 7.12153C3.01367 7.89842 2.73301 9.04434 2.73301 10.4583H3.93301C3.93301 9.164 4.19679 8.41408 4.64091 7.97222C5.08578 7.52962 5.84154 7.26667 7.14412 7.26667V6.06667ZM2.73301 10.4583V13.7083H3.93301V10.4583H2.73301ZM2.73301 13.7083C2.73301 15.1223 3.01367 16.2682 3.79455 17.0451C4.57468 17.8213 5.72448 18.1 7.14412 18.1V16.9C5.84154 16.9 5.08578 16.6371 4.64091 16.1944C4.19679 15.7526 3.93301 15.0027 3.93301 13.7083H2.73301Z" fill="#91909E"/>
</svg>
