<svg width="39" height="36" viewBox="0 0 39 36" fill="none" xmlns="http://www.w3.org/2000/svg">
<path d="M1.00211 21.4629C1.06335 21.4324 1.07602 21.3682 1.08764 21.3116C1.20589 20.7391 1.51526 20.2776 1.88375 19.8509C2.31243 19.3546 2.80552 18.9323 3.33028 18.5491C3.66077 18.3075 3.99759 18.0757 4.34602 17.8634C4.39353 17.834 4.43682 17.7883 4.51601 17.7959C4.24254 18.0452 3.97013 18.2748 3.73996 18.5513C3.55201 18.7766 3.38624 19.015 3.26376 19.286C2.98924 19.8955 3.08427 20.4571 3.54357 20.935C3.90889 21.3137 4.36397 21.5412 4.84016 21.7263C5.59404 22.0191 6.37855 22.1791 7.17255 22.2988C9.0182 22.5752 10.8755 22.5578 12.7306 22.4914C13.8583 22.4512 14.9838 22.338 16.1062 22.2084C18.9422 21.8819 21.7402 21.3508 24.5055 20.628C26.7968 20.0294 29.0489 19.3012 31.2219 18.3336C32.4794 17.7742 33.701 17.1461 34.8128 16.3113C35.1898 16.0283 35.5372 15.7127 35.8497 15.3567C36.0545 15.1227 36.2256 14.8648 36.3491 14.5763C36.592 14.0103 36.5012 13.4596 36.0852 13.0122C35.7082 12.6073 35.231 12.3679 34.7284 12.1763C34.6027 12.1284 34.4707 12.098 34.3145 12C35.364 12.1927 36.3544 12.4288 37.2857 12.8718C37.6858 13.0623 38.0617 13.2942 38.3827 13.6109C39.0342 14.2542 39.1735 15.0291 38.7839 15.8661C38.502 16.4735 38.0681 16.9578 37.5813 17.3965C36.4727 18.3967 35.2025 19.1336 33.8869 19.7943C31.9251 20.7782 29.8809 21.5412 27.7967 22.1976C25.5688 22.8985 23.3061 23.4525 21.0191 23.8977C19.9178 24.1121 18.8113 24.2939 17.7005 24.4495C16.7312 24.5856 15.7609 24.7042 14.7874 24.7902C13.7199 24.8849 12.6504 24.9361 11.5797 24.9796C10.5312 25.0221 9.48594 24.9927 8.4417 24.9426C7.33093 24.8903 6.22334 24.7684 5.13052 24.5399C4.26049 24.3581 3.4063 24.123 2.60807 23.7094C2.24486 23.5211 1.90276 23.2991 1.61345 22.9997C1.36533 22.7429 1.17844 22.449 1.09186 22.092C1.07391 22.0191 1.06546 21.9363 1 21.8841C1.00211 21.7404 1.00211 21.6022 1.00211 21.4629Z" fill="#48B2FF"/>
<path d="M9.672 21.9969C9.53315 21.9969 9.40711 22.0045 9.28107 21.9958C8.53232 21.9459 7.78571 21.8754 7.0423 21.7603C6.84897 21.7299 6.76886 21.6398 6.6973 21.476C6.09275 20.0878 5.58539 18.6639 5.18805 17.2008C4.82703 15.8724 4.54932 14.5276 4.35706 13.1634C4.20539 12.0824 4.10178 10.9981 4.0441 9.90843C3.97574 8.6082 4.00138 7.30905 4.02488 6.0099C4.02594 5.94044 4.03876 5.87206 4.0441 5.80368C4.06653 5.51173 4.06653 5.50739 4.34211 5.50956C5.17951 5.51824 6.01584 5.47808 6.84897 5.40211C9.37186 5.16985 11.8542 4.73571 14.2467 3.85767C15.4313 3.42245 16.5624 2.87761 17.5942 2.13524C18.0204 1.82918 18.407 1.47536 18.8065 1.13565C18.9838 0.984785 18.9529 0.928347 19.1782 1.13239C19.8939 1.78034 20.649 2.37293 21.495 2.83963C22.4958 3.39206 23.5479 3.82077 24.6331 4.16591C25.9629 4.58811 27.3205 4.88657 28.6962 5.10256C29.9107 5.29249 31.1315 5.42382 32.3609 5.48134C32.8223 5.50305 33.2827 5.4987 33.743 5.5139C33.9364 5.52041 33.9353 5.5215 33.9449 5.71794C33.9983 6.82607 34.0165 7.93529 33.9834 9.0445C33.9513 10.1179 33.8723 11.188 33.7484 12.2549C33.5561 13.909 33.2442 15.537 32.8159 17.1444C32.7732 17.3039 32.7038 17.4114 32.5436 17.4852C31.6955 17.8759 30.8378 18.2395 29.9662 18.5683C29.9192 18.5857 29.8701 18.5966 29.8241 18.6107C29.7665 18.5445 29.8145 18.4902 29.8327 18.437C30.3026 17.1064 30.6679 15.7465 30.9392 14.3594C31.1101 13.4846 31.2447 12.6044 31.3398 11.7177C31.4594 10.6063 31.5331 9.49275 31.5395 8.37376C31.5417 8.03514 31.5417 8.04057 31.2095 8.01452C28.4249 7.80071 25.6937 7.30796 23.0555 6.35721C21.6744 5.85904 20.3564 5.23063 19.1483 4.37864C19.0501 4.30917 18.9753 4.2777 18.8578 4.36236C17.7192 5.17527 16.4738 5.77981 15.1717 6.26929C13.4296 6.92375 11.632 7.36114 9.79911 7.65527C8.76197 7.82241 7.72269 7.95699 6.6738 8.02103C6.45697 8.03405 6.45057 8.04274 6.45057 8.27283C6.4527 9.3039 6.50824 10.3328 6.60865 11.3595C6.78916 13.2079 7.12668 15.0247 7.6351 16.809C8.11789 18.5032 8.75663 20.1345 9.54703 21.7039C9.59296 21.7929 9.65491 21.8775 9.672 21.9969Z" fill="#48B2FF"/>
<path d="M31 22.0173C30.653 22.7807 30.2785 23.5197 29.8683 24.2407C27.6976 28.0535 24.8371 31.2325 21.2341 33.7276C20.5738 34.1842 19.8882 34.5983 19.1678 34.9551C19.0391 35.0188 18.9452 35.0124 18.8208 34.9508C17.4665 34.2808 16.2388 33.4155 15.069 32.4673C12.7728 30.6071 10.8142 28.4357 9.18036 25.9682C9.11708 25.8715 9.05696 25.7728 9 25.6826C9.04219 25.6199 9.08754 25.6401 9.12657 25.6411C9.98619 25.6677 10.8469 25.6815 11.7065 25.6549C11.8942 25.6496 12.0081 25.7038 12.1231 25.8577C13.912 28.2298 16.0299 30.2514 18.5139 31.8791C18.6689 31.981 18.8176 32.1435 18.9906 32.1498C19.1646 32.1562 19.3134 31.9863 19.4674 31.8855C21.9755 30.2461 24.1061 28.2022 25.9119 25.81C26.5247 24.9988 27.0869 24.1536 27.5932 23.2723C27.6796 23.1215 27.7883 23.043 27.9539 22.9941C28.9232 22.7064 29.8809 22.3836 30.8312 22.0364C30.8776 22.0173 30.9188 21.9769 31 22.0173Z" fill="white"/>
<path d="M18.9998 19.833C18.9998 20.0039 18.9962 20.0021 18.7855 19.9993C18.4997 19.9957 18.2164 19.969 17.933 19.9369C17.702 19.9111 17.7032 19.9075 17.708 19.7338C17.7223 19.2349 17.7318 18.7359 17.7508 18.237C17.7544 18.1341 17.7247 18.0752 17.5842 18.0449C17.3091 17.9861 17.0436 17.9025 16.7948 17.7941C16.6841 17.7463 16.6162 17.7564 16.5281 17.829C16.1114 18.1717 15.6875 18.509 15.2649 18.8471C15.2125 18.8894 15.1541 18.9289 15.1077 18.9748C15.0387 19.0428 14.9744 19.0355 14.8898 18.9895C14.6172 18.8407 14.3553 18.6835 14.11 18.509C13.9647 18.4051 13.9635 18.4014 14.1052 18.2903C14.9065 17.6526 15.709 17.0158 16.5126 16.379C16.6519 16.2688 16.7984 16.1631 16.9353 16.051C17.0055 15.994 17.0579 15.9784 17.1472 16.0372C17.6389 16.3597 18.2092 16.5472 18.8533 16.5959C18.9748 16.6051 18.9855 16.6556 18.9855 16.7282C18.9843 17.059 19.0022 19.3267 18.9998 19.833Z" fill="white"/>
<path d="M13.2166 9.80681C13.4219 9.53977 13.6607 9.29327 13.9145 9.05558C13.9849 8.99004 14.0403 8.97635 14.1164 9.04776C14.1902 9.1172 16.0349 10.6695 16.8759 11.3807C17.0374 11.5176 17.0385 11.5196 16.8955 11.677C16.5909 12.0116 16.4029 12.3882 16.3094 12.801C16.2667 12.9897 16.2667 12.9946 16.0349 12.9985C15.4915 13.0083 13.0216 12.9653 12.3306 12.977C12.2568 12.978 12.1829 12.977 12.1091 12.977C12.0272 12.976 11.9949 12.9399 12.0007 12.8724C12.0249 12.5848 12.0514 12.3755 12.1114 12.0898C12.1333 11.9861 12.1933 11.9539 12.3202 11.9578C12.9097 11.9754 13.4992 11.9842 14.0887 11.9959C14.1533 11.9969 14.2191 11.991 14.2825 11.9989C14.4106 12.0145 14.4544 11.9607 14.4936 11.8649C14.5686 11.681 14.6551 11.499 14.7601 11.3259C14.827 11.2144 14.8097 11.1479 14.7059 11.0647C14.2721 10.7145 13.8453 10.3585 13.4185 10.0024C13.3458 9.94473 13.2604 9.89386 13.2166 9.80681Z" fill="white"/>
<path d="M20.4879 16C20.6073 16.0722 20.6891 16.1699 20.7816 16.2567C21.4883 16.9182 22.1941 17.5806 22.8989 18.2431C23.0337 18.3701 23.0337 18.3728 22.8989 18.4916C22.7131 18.656 22.5118 18.8031 22.3106 18.9493C22.222 19.0133 22.17 18.9996 22.0997 18.9274C21.7762 18.5948 21.4469 18.2668 21.1205 17.9379C21.0675 17.8849 21.0136 17.8328 20.9626 17.7789C20.9221 17.7351 20.8836 17.7214 20.8239 17.7533C20.5957 17.8758 20.357 17.9763 20.1076 18.0521C20.0209 18.0786 20.0084 18.1288 20.0122 18.2001C20.0209 18.3527 20.0277 18.5062 20.0325 18.6588C20.0421 19.0014 20.0517 19.344 20.0594 19.6866C20.0642 19.8886 20.0633 19.8922 19.8428 19.9288C19.631 19.9644 19.4172 19.9946 19.2015 19.9991C19.0349 20.0028 19.033 20.0019 19.0311 19.8511C19.0282 19.6611 19.008 17.6336 19.0003 16.8095C18.9984 16.6405 19.0012 16.6359 19.1794 16.6058C19.6743 16.5235 20.1095 16.3189 20.4879 16Z" fill="white"/>
<path d="M23.4649 18C23.1144 17.6559 22.7849 17.3327 22.4553 17.0086C21.9959 16.5562 21.5404 16.1009 21.0782 15.6522C20.993 15.5695 20.9702 15.5135 21.046 15.408C21.3065 15.0506 21.4438 14.6428 21.4836 14.2046C21.4949 14.0791 21.5366 14.044 21.6597 14.043C22.6513 14.0326 23.6429 14.0155 24.6345 14.0003C24.6497 14.0003 24.6648 14.0003 24.68 14.0003C25.0095 13.9984 25.0143 13.9984 24.9925 14.3405C24.9802 14.5297 24.9518 14.7169 24.93 14.9061C24.9215 14.985 24.8855 15.0211 24.7974 15.0211C24.5019 15.0211 24.2074 15.0316 23.9119 15.0363C23.677 15.0401 23.4421 15.0515 23.2082 15.0401C23.0728 15.0344 23.0235 15.0886 22.9913 15.2103C22.9335 15.4298 22.8493 15.6427 22.7403 15.8423C22.6864 15.9402 22.6958 15.9963 22.7858 16.0686C23.1703 16.3756 23.5491 16.6921 23.9299 17.0048C23.9592 17.0286 23.9876 17.0552 24.0189 17.0761C24.0899 17.1236 24.0956 17.1731 24.0464 17.2453C23.874 17.5019 23.6931 17.7538 23.4649 18Z" fill="white"/>
<path d="M21 11.5093C21.2975 11.1964 21.6095 10.8815 21.9079 10.5518C22.3088 10.11 22.6997 9.65636 23.0951 9.20763C23.1405 9.15646 23.1876 9.10726 23.2285 9.05314C23.282 8.9813 23.3264 8.98426 23.3863 9.05019C23.5296 9.20567 23.6774 9.35622 23.808 9.52548C23.9359 9.69277 23.9377 9.69375 23.8035 9.84628C23.4987 10.1936 23.1931 10.539 22.8883 10.8854C22.7042 11.094 22.7033 11.094 22.8276 11.3519C22.911 11.526 22.9881 11.7042 23.0425 11.8911C23.0752 12.0053 23.1205 12.0476 23.243 12.0299C23.7309 11.96 24.2216 11.9108 24.7105 11.8449C24.8066 11.8321 24.8601 11.8449 24.8801 11.9561C24.9299 12.2336 24.9771 12.5101 24.9989 12.7925C25.0079 12.9076 24.9617 12.9214 24.8755 12.9234C24.4701 12.9303 22.4421 12.9844 21.8335 12.9992C21.6548 13.0031 21.6521 13.0011 21.6131 12.8073C21.5233 12.3605 21.3383 11.9669 21.058 11.6254C21.0336 11.5969 21.0027 11.5723 21 11.5093Z" fill="white"/>
<path d="M15.3289 14.001C15.4911 14.001 15.494 13.999 15.5109 14.1587C15.5562 14.5929 15.7015 14.9881 15.9486 15.3405C16.0193 15.4408 16.0202 15.5001 15.9316 15.5916C15.1789 16.3636 14.431 17.1424 13.6812 17.9173C13.5737 18.0282 13.569 18.0273 13.4728 17.9163C13.302 17.7196 13.1521 17.5055 13.0012 17.2913C12.9361 17.1979 12.9587 17.1482 13.0332 17.081C13.4086 16.7442 13.7793 16.4035 14.1509 16.0628C14.3159 15.9119 14.315 15.9109 14.2207 15.7016C14.1415 15.5254 14.066 15.3473 14.0179 15.1594C13.9887 15.0446 13.9349 14.9988 13.8151 15.0027C13.3483 15.0173 12.8814 15.0222 12.4145 15.0309C12.3542 15.0319 12.2938 15.0299 12.2334 15.0358C12.1287 15.0455 12.0844 14.9988 12.0759 14.8917C12.0561 14.66 12.0306 14.3787 12.0024 14.148C11.9882 14.0312 12.0382 13.999 12.1419 14C12.6852 14.0029 14.8092 14.001 15.3289 14.001Z" fill="white"/>
<path d="M15.0254 7.94255C15.1601 8.05857 15.2898 8.16987 15.4183 8.28211C15.7684 8.58677 16.1173 8.89142 16.4686 9.19608C16.6179 9.3253 16.6203 9.32625 16.8296 9.24607C17.0573 9.1593 17.2923 9.08478 17.5335 9.02253C17.7746 8.96122 17.777 8.95934 17.7746 8.75466C17.7709 8.3255 17.7623 7.89633 17.7587 7.46717C17.755 7.08706 17.7562 7.08517 18.2409 7.04178C18.4258 7.0248 18.6106 7.01915 18.7954 7.00217C18.9399 6.98896 18.9802 7.03612 18.9802 7.14271C18.9778 7.54923 18.9949 9.64222 18.9998 10.2817C19.0011 10.4779 19.0023 10.4826 18.7354 10.5138C18.2226 10.5732 17.755 10.7175 17.3388 10.9542C17.2323 11.0146 17.1711 11.0193 17.072 10.9439C16.0867 10.1902 15.094 9.44226 14.1062 8.69146C13.9654 8.58394 13.9654 8.57922 14.1013 8.48584C14.3828 8.28871 14.6852 8.11139 15.0254 7.94255Z" fill="white"/>
<path d="M19.0002 7.21177C19.0002 6.97844 18.9835 6.99261 19.2356 7.00678C19.4158 7.01717 19.596 7.03606 19.7752 7.05874C19.9908 7.08519 19.9908 7.08802 19.9928 7.29395C19.9957 7.78422 19.9977 8.27448 20.0007 8.76475C20.0017 8.96407 20.0017 8.96501 20.2006 9.0283C20.3955 9.0897 20.5875 9.15866 20.7658 9.25407C20.8731 9.31169 20.9391 9.3013 21.0208 9.20873C21.3585 8.83087 21.7051 8.45963 22.0478 8.08556C22.2054 7.91363 22.1788 7.92213 22.3649 8.04871C22.5382 8.16679 22.7056 8.29243 22.869 8.42185C23.0591 8.57299 23.0226 8.55598 22.8848 8.68918C22.229 9.31925 21.5732 9.94932 20.9164 10.5803C20.7943 10.6975 20.6683 10.8118 20.5501 10.9336C20.4812 11.0045 20.429 11.0272 20.3345 10.9591C19.9938 10.7154 19.6078 10.5747 19.1873 10.5133C19.018 10.4887 19.016 10.4821 19.015 10.3121C19.014 9.78401 19.0002 7.71715 19.0002 7.21177Z" fill="white"/>
</svg>
