<svg width="24" height="24" viewBox="0 0 24 24" fill="none" xmlns="http://www.w3.org/2000/svg">
  <path d="M2.96469 8.65127C6.82355 2.44949 17.1767 2.44962 21.0356 8.6514C21.6787 9.68502 22.8002 12.0006 22.8002 12.0006C22.8002 12.0006 21.6785 14.3155 21.0356 15.3487C17.1767 21.5505 6.82355 21.5504 2.96469 15.3486C2.32179 14.3154 1.2002 12.0006 1.2002 12.0006C1.2002 12.0006 2.32153 9.68493 2.96469 8.65127Z" stroke="#48B2FF" stroke-width="1.2" stroke-linecap="round" stroke-linejoin="round"/>
  <path fill-rule="evenodd" clip-rule="evenodd" d="M16.0001 12.0006C16.0001 14.2097 14.2086 16 11.9995 16C9.79044 16 8.00015 14.2097 8.00015 12.0006C8.00015 9.79029 9.79044 8 11.9995 8C14.2086 8 16.0001 9.79029 16.0001 12.0006Z" stroke="#48B2FF" stroke-width="1.2" stroke-linecap="round" stroke-linejoin="round"/>
</svg>
